<svg width="175" height="175" viewBox="0 0 175 175" fill="none" xmlns="http://www.w3.org/2000/svg">
    <g filter="url(#filter0_d_7_18)">
        <rect x="11" y="11" width="152.467" height="152.467" rx="76.2333" fill="#29293D" />
        <path
            d="M83.7445 127.076C83.1134 127.87 82.4445 128.632 81.7756 129.397C81.7454 129.434 81.6774 129.441 81.6471 129.478C81.5867 129.552 81.4884 129.6 81.428 129.674L81.3675 129.748C80.9027 130.18 80.4076 130.65 79.8332 131.06C77.9249 132.543 75.785 133.716 73.4957 134.534C66.3911 137.025 58.4853 135.488 52.2839 129.633C43.6299 121.52 44.4046 108.444 51.3127 99.7539C60.0498 86.8028 75.0565 68.7289 54.2755 52.54C50.538 49.6275 47.7679 47.2287 36 43.8283C43.6942 42.409 50.8327 42.8488 58.7763 44.878C64.3958 48.0529 73.2312 54.8427 76.2355 64.0164C80.7817 77.9248 68.2391 98.719 62.1775 106.725C53.856 117.813 67.3207 129.807 77.2332 116.412C82.4181 109.434 91.4802 89.6784 88.3323 75.0271C86.4919 66.7182 84.0355 60.6603 74.3007 52.3404C76.1372 53.4277 77.8937 54.6393 79.5573 55.9663C102.179 77.034 99.5523 109.611 83.7445 127.076Z"
            fill="url(#paint0_linear_7_18)" />
        <path
            d="M90.322 47.6056C90.9531 46.811 91.6219 46.0496 92.2908 45.2845C92.3211 45.2475 92.3891 45.2401 92.4193 45.2032C92.4798 45.1293 92.578 45.0812 92.6385 45.0073L92.699 44.9334C93.1638 44.5009 93.6589 44.0315 94.2333 43.6212C96.1416 42.1382 98.2814 40.9651 100.571 40.1469C107.675 37.6558 115.581 39.1933 121.783 45.0479C130.437 53.1609 129.662 66.2377 122.754 74.9272C114.02 87.8783 99.01 105.952 119.791 122.141C123.528 125.054 126.298 127.452 138.07 130.853C130.372 132.272 123.234 131.832 115.29 129.803C109.671 126.628 100.835 119.838 97.8309 110.665C93.2847 96.7563 105.827 75.9621 111.889 67.9564C120.21 56.8681 106.746 44.8742 96.8333 58.2689C91.6484 65.2471 82.5862 85.0027 85.7342 99.6541C87.5784 107.963 90.031 114.021 99.7658 122.341C97.9632 121.276 96.2097 120.068 94.5091 118.715C71.8915 97.6471 74.5141 65.0697 90.322 47.6056Z"
            fill="url(#paint1_linear_7_18)" />
    </g>
    <defs>
        <filter id="filter0_d_7_18" x="0" y="0" width="174.467" height="174.467" filterUnits="userSpaceOnUse"
            color-interpolation-filters="sRGB">
            <feFlood flood-opacity="0" result="BackgroundImageFix" />
            <feColorMatrix in="SourceAlpha" type="matrix" values="0 0 0 0 0 0 0 0 0 0 0 0 0 0 0 0 0 0 127 0"
                result="hardAlpha" />
            <feMorphology radius="1" operator="dilate" in="SourceAlpha" result="effect1_dropShadow_7_18" />
            <feOffset />
            <feGaussianBlur stdDeviation="5" />
            <feComposite in2="hardAlpha" operator="out" />
            <feColorMatrix type="matrix" values="0 0 0 0 0 0 0 0 0 0 0 0 0 0 0 0 0 0 0.25 0" />
            <feBlend mode="normal" in2="BackgroundImageFix" result="effect1_dropShadow_7_18" />
            <feBlend mode="normal" in="SourceGraphic" in2="effect1_dropShadow_7_18" result="shape" />
        </filter>
        <linearGradient id="paint0_linear_7_18" x1="96.068" y1="93.8217" x2="-5.57716" y2="93.8217"
            gradientUnits="userSpaceOnUse">
            <stop stop-color="#0A84FF" />
            <stop offset="1" stop-color="#52A8FF" />
        </linearGradient>
        <linearGradient id="paint1_linear_7_18" x1="179.643" y1="80.8594" x2="77.9984" y2="80.8594"
            gradientUnits="userSpaceOnUse">
            <stop stop-color="#0A84FF" />
            <stop offset="1" stop-color="#52A8FF" />
        </linearGradient>
    </defs>
</svg>